<svg xmlns="http://www.w3.org/2000/svg" 
     xmlns:xlink="http://www.w3.org/1999/xlink"
     width="100" height="100" viewBox="0 0 100 100">
  <g transform="translate(50 50) scale(-0.69 0.69) rotate(0) translate(-50 -50)" style="fill:#ffc500">
    <svg fill="#ffc500" 
         xmlns="http://www.w3.org/2000/svg" 
         xmlns:xlink="http://www.w3.org/1999/xlink"
         version="1.1" x="0px" y="0px" viewBox="0 0 100 100" enable-background="new 0 0 100 100" xml:space="preserve">
      <path d="M46.955,40.485C34.846,31.95,20.994,30.38,13.604,30.224l3.878,31.9c0.062,0.488-0.131,0.975-0.507,1.292  c-2.981,2.518-6.228,6.119-6.277,7.552c-0.097,2.84,1.371,4.482,4.359,4.886c2.347,0.314,6.338,0.337,9.361,0.294  c-0.087-0.091-0.163-0.192-0.224-0.304l-1.211-2.203l-4.924-5.086c-0.562-0.58-0.546-1.504,0.034-2.065  c0.58-0.561,1.504-0.547,2.065,0.032l5.06,5.227c0.09,0.093,0.168,0.198,0.23,0.313l1.155,2.101l2.893,2.178  c0.492,0.371,0.7,1.011,0.517,1.6c-0.184,0.589-0.715,1.001-1.331,1.028l-0.194,0.006c-0.822,0.029-3.389,0.115-6.243,0.115  c-2.681,0-5.611-0.075-7.578-0.339c-4.46-0.601-7.037-3.547-6.891-7.88c0.105-3.043,4.79-7.475,6.713-9.166  c0,0-3.826-31.472-3.827-31.472c-1.47,0.043-2.319,0.129-2.361,0.133c-0.798,0.091-1.524-0.491-1.609-1.292  c-0.089-0.804,0.49-1.524,1.291-1.612c0.165-0.019,0.985-0.103,2.324-0.155v0.001L9.97,24.529C9.87,23.729,10.44,23,11.243,22.902  c0.797-0.095,1.526,0.474,1.626,1.275l0.375,3.089c7.742,0.083,22.666,1.643,35.84,11.148v-0.001c1.435-0.862,2.757-0.8,3.277-0.729  h13.744c0.024,0,0.051,0,0.075,0.002c1.058,0.054,3.145,0.733,3.482,2.905c0.249,1.599,0.821,7.82,0.845,8.086  c0.062,0.661-0.333,1.281-0.96,1.508l-8.542,3.07l-1.262,4.409c-0.221,0.775-1.029,1.223-1.806,1.004  c-0.776-0.223-1.225-1.031-1.003-1.807l1.466-5.131c0.129-0.451,0.468-0.813,0.911-0.974l8.182-2.94  c-0.181-1.903-0.543-5.66-0.718-6.777c-0.051-0.327-0.608-0.417-0.737-0.434H52.248c-0.117,0-0.231-0.015-0.345-0.043  c-0.142-0.022-1.786-0.222-3.152,2.649c-2.353,4.939-4.814,14.945-2.134,17.272h36.141l-2.072-8.815h-4.198  c-0.808,0-1.462-0.654-1.462-1.461c0-0.806,0.654-1.461,1.462-1.461h5.355c0.679,0,1.267,0.468,1.422,1.127l2.759,11.737  c0.103,0.435,0,0.893-0.277,1.242c-0.276,0.349-0.697,0.553-1.145,0.553H46.153c-0.262,0-0.521-0.07-0.748-0.204  c-6.026-3.592-0.888-17.897,0.708-21.247C46.379,41.397,46.662,40.91,46.955,40.485 M93.316,73.28c0-4.041-3.286-7.329-7.326-7.329  H39.932c-4.042,0-7.328,3.288-7.328,7.329c0,4.04,3.286,7.328,7.328,7.328H85.99C90.03,80.608,93.316,77.32,93.316,73.28z   M85.99,68.875c2.429,0,4.405,1.977,4.405,4.405s-1.977,4.406-4.405,4.406H39.932c-2.431,0-4.406-1.978-4.406-4.406  s1.975-4.405,4.406-4.405H85.99z M71.617,64.693c0-0.533-0.491-0.965-1.095-0.965H53.258c-0.606,0-1.096,0.432-1.096,0.965  s0.489,0.966,1.096,0.966h17.265C71.126,65.659,71.617,65.227,71.617,64.693z"></path>
    </svg>
  </g>
</svg>